<svg viewBox="0 0 28 28" xmlns="http://www.w3.org/2000/svg" fill="#000000"><g id="SVGRepo_bgCarrier" stroke-width="0"></g><g id="SVGRepo_tracerCarrier" stroke-linecap="round" stroke-linejoin="round"></g><g id="SVGRepo_iconCarrier"><path d="M32.3132966,17.0344534 L34.0729071,16.8698521 C34.3335679,16.8443847 34.57558,16.7305148 34.7589541,16.5470578 L36.8668846,14.4391273 C37.172093,14.1339189 37.627781,14.0315805 38.0439657,14.1747785 C38.4601504,14.3179765 38.7653918,14.6821303 38.8324303,15.1154189 C39.2283687,17.6352909 38.2060823,20.1342578 36.1745622,21.6125455 C34.1430421,23.0908333 31.4340401,23.3070343 29.1313599,22.174652 L15.2822892,36.0237227 C14.3694733,36.9365386 12.8895062,36.9365386 11.9766903,36.0237227 C11.0638743,35.1109067 11.0638743,33.6309397 11.9766903,32.7181237 L25.8273725,18.8674415 C24.6967399,16.5647203 24.913721,13.8567631 26.3915992,11.8258058 C27.8694775,9.79484853 30.3672209,8.77212658 32.8866056,9.16637107 C33.3198942,9.23340957 33.684048,9.53865096 33.827246,9.95483565 C33.970444,10.3710203 33.8681056,10.8267084 33.5628972,11.1319168 L31.4678593,13.2269547 C31.2760448,13.4196585 31.1611383,13.6762881 31.1438887,13.9505032 L31.0242247,15.7840591 C31.0021934,16.1256399 31.1335511,16.4630069 31.3826662,16.7046475 C31.6317812,16.9462881 31.9728284,17.0671517 32.3132966,17.0344534 Z M13.3994135,34.6043006 C13.7899378,34.9948249 14.4231027,34.9948249 14.813627,34.6043006 C15.2041513,34.2137764 15.2041513,33.5806114 14.813627,33.1900871 C14.4231027,32.7995628 13.7899378,32.7995628 13.3994135,33.1900871 C13.0088892,33.5806114 13.0088892,34.2137764 13.3994135,34.6043006 Z" fill-rule="evenodd" transform="translate(-11 -9)"></path></g></svg>