<svg version="1.1" xmlns="http://www.w3.org/2000/svg" xmlns:xlink="http://www.w3.org/1999/xlink" viewBox="0 301 1560 301"><defs/><g><path fill="none" paint-order="fill stroke markers" d=" M 20 416.7191066669057 L 21 417.3844749573397 L 22 418.039729091243 L 23 418.68443828739635 L 24 419.31817869709886 L 25 419.94053368281675 L 26 420.5510940920921 L 27 421.1494585265302 L 28 421.7352336056895 L 29 422.30803422570006 L 30 422.867483812441 L 31 423.4132145691103 L 32 423.9448677180238 L 33 424.4620937364852 L 34 424.9645525865714 L 35 425.45191393868237 L 36 425.9238573887083 L 37 426.38007266867197 L 38 426.8202598507067 L 39 427.2441295442369 L 40 427.6514030862312 L 41 428.0418127244025 L 42 428.4151017932357 L 43 428.77102488272584 L 44 429.10934799971756 L 45 429.4298487217379 L 46 429.7323163432232 L 47 430.0165520140418 L 48 430.2823688702237 L 49 430.5295921568098 L 50 430.75805934274047 L 51 430.96762022770736 L 52 431.15813704089936 L 53 431.3294845315767 L 54 431.48155005141393 L 55 431.6142336285579 L 56 431.72744803335195 L 57 431.82111883568297 L 58 431.8951844539136 L 59 431.9495961953678 L 60 431.9843182883425 L 61 431.9993279056248 L 62 431.99461517949953 L 63 431.9701832082361 L 64 431.92604805405205 L 65 431.86223873255295 L 66 431.77879719365694 L 67 431.67577829401586 L 68 431.5532497609508 L 69 431.41129214792676 L 70 431.2499987815942 L 71 431.0694757004341 L 72 430.86984158504526 L 73 430.6512276801207 L 74 430.4137777081637 L 75 430.15764777500124 L 76 429.8830062671556 L 77 429.5900337411429 L 78 429.27892280477045 L 79 428.9498779905112 L 80 428.60311562103885 L 81 428.2388636670118 L 82 427.85736159719903 L 83 427.45886022104713 L 84 427.0436215237917 L 85 426.6119184942214 L 86 426.1640349452078 L 87 425.7002653271195 L 88 425.22091453424275 L 89 424.726297704336 L 90 424.21674001144993 L 91 423.69257645214975 L 92 423.15415162527944 L 93 422.6018195054137 L 94 422.0359432101456 L 95 421.45689476136357 L 96 420.8650548406747 L 97 420.26081253913446 L 98 419.6445651014481 L 99 419.01671766481167 L 100 418.3776829925641 L 101 417.7278812028258 L 102 417.0677394923023 L 103 416.39769185543344 L 104 415.71817879907434 L 105 415.02964705289486 L 106 414.3325492756874 L 107 413.6273437577775 L 108 412.91449411973167 L 109 412.19446900756094 L 110 411.467741784621 L 111 410.73479022041056 L 112 409.99609617647315 L 113 409.25214528960885 L 114 408.50342665260376 L 115 407.75043249268793 L 116 406.99365784793196 L 117 406.233600241796 L 118 405.4707593560452 L 119 404.7056367022455 L 120 403.9387352920568 L 121 403.17055930654 L 122 402.4016137646953 L 123 401.6324041914494 L 124 400.8634362853099 L 125 400.0952155859064 L 126 399.3282471416351 L 127 398.5630351776269 L 128 397.8000827642566 L 129 397.03989148641136 L 130 396.28296111373544 L 131 395.5297892720688 L 132 394.7808711162946 L 133 394.0366990048116 L 134 393.29776217584504 L 135 392.564546425808 L 136 391.83753378992674 L 137 391.117202225338 L 138 390.4040252968672 L 139 389.6984718656947 L 140 389.00100578111443 L 141 388.3120855755866 L 142 387.63216416328714 L 143 386.96168854234963 L 144 386.3010995009973 L 145 385.65083132775686 L 146 385.0113115259466 L 147 384.38296053262377 L 148 383.76619144217875 L 149 383.16140973475564 L 150 382.5690130096793 L 151 381.989390724063 L 152 381.4229239367691 L 153 380.8699850578911 L 154 380.33093760392114 L 155 379.80613595876537 L 156 379.29592514076217 L 157 378.80064057585815 L 158 378.3206078770906 L 159 377.85614263052065 L 160 377.40755018775894 L 161 376.9751254652194 L 162 376.5591527502335 L 163 376.1599055141523 L 164 375.7776462325592 L 165 375.41262621271176 L 166 375.06508542832546 L 167 374.735252361809 L 168 374.4233438540538 L 169 374.1295649618771 L 170 373.8541088232125 L 171 373.59715653013563 L 172 373.35887700980976 L 173 373.1394269134287 L 174 372.9389505132298 L 175 372.7575796076463 L 176 372.59543343465884 L 177 372.4526185934058 L 178 372.3292289741021 L 179 372.2253456963132 L 180 372.141037055625 L 181 372.0763584787449 L 182 372.0313524870621 L 183 372.0060486686938 L 184 372.0004636590324 L 185 372.0146011298094 L 186 372.0484517866816 L 187 372.10199337534095 L 188 372.17519069614576 L 189 372.26799562726126 L 190 372.3803471562966 L 191 372.5121714204157 L 192 372.6633817548968 L 193 372.83387875010806 L 194 373.023550316862 L 195 373.23227176010585 L 196 373.45990586089954 L 197 373.7063029666268 L 198 373.97130108938086 L 199 374.2547260124593 L 200 374.556391404899 L 201 374.87609894397474 L 202 375.2136384455819 L 203 375.56878800241697 L 204 375.941314129865 L 205 376.33097191949895 L 206 376.7375052000884 L 207 377.16064670601355 L 208 377.6001182529726 L 209 378.0556309208672 L 210 378.52688524374634 L 211 379.01357140668284 L 212 379.51536944945406 L 213 380.03194947689195 L 214 380.5629718757648 L 215 381.1080875380479 L 216 381.6669380904363 L 217 382.2391561299488 L 218 382.82436546546813 L 219 383.42218136505915 L 220 384.03221080890137 L 221 384.65405274767073 L 222 385.28729836619976 L 223 385.9315313522434 L 224 386.5863281701736 L 225 387.2512583394228 L 226 387.92588471749286 L 227 388.6097637873444 L 228 389.30244594897596 L 229 390.00347581500347 L 230 390.71239251004323 L 231 391.42872997370375 L 232 392.1520172669861 L 233 392.8817788818914 L 234 393.6175350540322 L 235 394.35880207804234 L 236 395.1050926255773 L 237 395.8559160656967 L 238 396.6107787874179 L 239 397.36918452422907 L 240 398.13063468034704 L 241 398.8946286585081 L 242 399.66066418907326 L 243 400.4282376602333 L 244 401.196844449097 L 245 401.9659792534427 L 246 402.7351364239177 L 247 403.5038102964652 L 248 404.271495524761 L 249 405.03768741244176 L 250 405.801882244905 L 251 406.56357762046497 L 252 407.322272780644 L 253 408.0774689393848 L 254 408.8286696109651 L 255 409.5753809364004 L 256 410.31711200812 L 257 411.0533751927022 L 258 411.78368645145764 L 259 412.5075656586487 L 260 413.2245369171366 L 261 413.9341288712492 L 262 414.635875016662 L 263 415.3293140070906 L 264 416.0139899575917 L 265 416.6894527442738 L 266 417.35525830022044 L 267 418.0109689074315 L 268 418.65615348459033 L 269 419.29038787046807 L 270 419.91325510277795 L 271 420.5243456922979 L 272 421.12325789207875 L 273 421.70959796156365 L 274 422.2829804254433 L 275 422.8430283270775 L 276 423.3893734763162 L 277 423.9216566915576 L 278 424.4395280358832 L 279 424.9426470471159 L 280 425.4306829616483 L 281 425.90331493189575 L 282 426.36023223722975 L 283 426.8011344882537 L 284 427.2257318242871 L 285 427.63374510392725 L 286 428.0249060885642 L 287 428.3989576187279 L 288 428.75565378315144 L 289 429.0947600804398 L 290 429.41605357323687 L 291 429.7193230347905 L 292 430.0043690878184 L 293 430.27100433558434 L 294 430.51905348509706 L 295 430.74835346235284 L 296 430.9587535195447 L 297 431.15011533416777 L 298 431.32231309995615 L 299 431.4752336095912 L 300 431.6087763291272 L 301 431.72285346408484 L 302 431.8173900171695 L 303 431.8923238375767 L 304 431.9476056618515 L 305 431.98319914627564 L 306 431.9990808907607 L 307 431.9952404542322 L 308 431.97168036149355 L 309 431.9284161015666 L 310 431.8654761175081 L 311 431.7829017877111 L 312 431.68074739870144 L 313 431.5590801094484 L 314 431.41797990721255 L 315 431.25753955496026 L 316 431.07786453037863 L 317 430.8790729565319 L 318 430.6612955242041 L 319 430.4246754059797 L 320 430.169368162118 L 321 429.89554163828393 L 322 429.60337585520165 L 323 429.29306289030455 L 324 428.9648067514583 L 325 428.61882324284085 L 326 428.2553398230669 L 327 427.87459545565093 L 328 427.4768404519063 L 329 427.0623363063837 L 330 426.6313555249582 L 331 426.1841814456767 L 332 425.7211080524837 L 333 425.2424397819491 L 334 424.7484913231232 L 335 424.239587410652 L 336 423.71606261128846 L 337 423.17826110393906 L 338 422.62653645339185 L 339 422.06125137787365 L 340 421.4827775105897 L 341 420.8914951554021 L 342 420.287793036808 L 343 419.67206804438246 L 344 419.04472497185225 L 345 418.40617625097417 L 346 417.7568416803915 L 347 417.0971481496476 L 348 416.4275293585372 L 349 415.74842553198107 L 350 415.06028313061057 L 351 414.3635545572527 L 352 413.6586978595087 L 353 412.9461764286216 L 354 412.22645869483046 L 355 411.50001781941234 L 356 410.7673313836136 L 357 410.0288810746755 L 358 409.2851523691602 L 359 408.5366342137861 L 360 407.7838187039813 L 361 407.027200760367 L 362 406.2672778033843 L 363 405.5045494262762 L 364 404.73951706664246 L 365 403.9726836767814 L 366 403.20455339303555 L 367 402.43563120435954 L 368 401.66642262032695 L 369 400.8974333387953 L 370 400.12916891344673 L 371 399.3621344214241 L 372 398.5968341312799 L 373 397.83377117145676 L 374 397.07344719951794 L 375 396.31636207234436 L 376 395.5630135175155 L 377 394.8138968060905 L 378 394.0695044270039 L 379 393.3303257632903 L 380 392.59684677035153 L 381 391.86954965647664 L 382 391.14891256582547 L 383 390.43540926408446 L 384 389.72950882700025 L 385 389.03167533199735 L 386 388.34236755308143 L 387 387.66203865922927 L 388 386.99113591646346 L 389 386.3301003938082 L 390 385.6793666733189 L 391 385.03936256437663 L 392 384.4105088224349 L 393 383.7932188724041 L 394 383.1878985368552 L 395 382.5949457692212 L 396 382.01475039217235 L 397 381.4476938413363 L 398 380.89414891453237 L 399 380.3544795266848 L 400 379.82904047057514 L 401 379.31817718359235 L 402 378.8222255206334 L 403 378.3415115333033 L 404 377.87635125555994 L 405 377.4270504959458 L 406 376.99390463654083 L 407 376.5771984387707 L 408 376.1772058561973 L 409 375.7941898544143 L 410 375.4284022381668 L 411 375.0800834858085 L 412 374.7494625912044 L 413 374.4367569131848 L 414 374.1421720326476 L 415 373.8659016174041 L 416 373.6081272948568 L 417 373.3690185325926 L 418 373.14873252697055 L 419 372.94741409977695 L 420 372.7651956030153 L 421 372.60219683189496 L 422 372.45852494607476 L 423 372.334274399213 L 424 372.22952687687143 L 425 372.1443512428132 L 426 372.0788034937295 L 427 372.03292672242634 L 428 372.00675108949406 L 429 372.0002938034789 L 430 372.01355910956966 L 431 372.04653828680694 L 432 372.0992096538164 L 433 372.17153858306256 L 434 372.26347752361426 L 435 372.3749660324053 L 436 372.5059308139719 L 437 372.65628576863844 L 438 372.8259320491223 L 439 373.01475812551803 L 440 373.2226398586205 L 441 373.44944058153686 L 442 373.6950111895355 L 443 373.9591902380706 L 444 374.2418040489208 L 445 374.54266682436935 L 446 374.8615807693524 L 447 375.1983362214949 L 448 375.55271178894793 L 449 375.92447449593755 L 450 376.3133799359291 L 451 376.7191724323067 L 452 377.1415852064614 L 453 377.58034055317876 L 454 378.03515002320916 L 455 378.5057146129023 L 456 378.9917249607797 L 457 379.4928615509172 L 458 380.008794923003 L 459 380.5391858889336 L 460 381.0836857558048 L 461 381.6419365551517 L 462 382.2135712782863 L 463 382.798214117579 L 464 383.39548071352397 L 465 384.00497840742736 L 466 384.62630649955145 L 467 385.259056512545 L 468 385.90281245998693 L 469 386.557151119867 L 470 387.2216423128226 L 471 387.89584918495024 L 472 388.5793284950045 L 473 389.27163090579677 L 474 389.9723012796009 L 475 390.6808789773728 L 476 391.3968981615868 L 477 392.11988810248914 L 478 392.8493734875682 L 479 393.5848747340371 L 480 394.32590830412465 L 481 395.07198702296495 L 482 395.82262039887945 L 483 396.5773149458387 L 484 397.3355745078931 L 485 398.0969005853589 L 486 398.8607926625449 L 487 399.6267485368043 L 488 400.3942646486963 L 489 401.16283641303886 L 490 401.9319585506366 L 491 402.70112542046405 L 492 403.46983135208797 L 493 404.23757097810767 L 494 405.0038395663972 L 495 405.76813335192924 L 496 406.52994986796364 L 497 407.2887882763818 L 498 408.04414969695137 L 499 408.79553753530246 L 500 409.5424578094024 L 501 410.284419474312 L 502 411.0209347450118 L 503 411.75151941708424 L 504 412.4756931850426 L 505 413.1929799580963 L 506 413.9029081731456 L 507 414.60501110479925 L 508 415.2988271722122 L 509 415.98390024254087 L 510 416.65977993081685 L 511 417.32602189604165 L 512 417.9821881333082 L 513 418.62784726175687 L 514 419.26257480817617 L 515 419.8859534860629 L 516 420.497573469957 L 517 421.09703266487185 L 518 421.6839369706415 L 519 422.2579005410131 L 520 422.8185460373117 L 521 423.3655048765129 L 522 423.89841747355905 L 523 424.4169334777597 L 524 424.9207120031213 L 525 425.4094218524548 L 526 425.882741735113 L 527 426.3403604782157 L 528 426.781977231223 L 529 427.2073016637219 L 530 427.6160541562976 L 531 428.00796598436204 L 532 428.38277949482125 L 533 428.7402482754624 L 534 429.08013731695235 L 535 429.40222316733843 L 536 429.70629407895194 L 537 429.9921501476165 L 538 430.25960344407 L 539 430.5084781375149 L 540 430.7386106112131 L 541 430.94984957005283 L 542 431.14205614001315 L 543 431.315103959464 L 544 431.46887926223917 L 545 431.6032809524296 L 546 431.7182206708461 L 547 431.8136228531092 L 548 431.88942477932716 L 549 431.9455766153294 L 550 431.9820414454293 L 551 431.99879529669295 L 552 431.99582715470007 L 553 431.9731389707848 L 554 431.9307456607533 L 555 431.86867509507704 L 556 431.7869680805707 L 557 431.6856783335644 L 558 431.564872444589 L 559 431.4246298345981 L 560 431.2650427027544 L 561 431.0862159658156 L 562 430.8882671891594 L 563 430.67132650949304 L 564 430.43553654929775 L 565 430.1810523230652 L 566 429.90804113538707 L 567 429.6166824709642 L 568 429.30716787660896 L 569 428.9797008353174 L 570 428.634496632494 L 571 428.2717822144175 L 572 427.89179603904057 L 573 427.49478791922115 L 574 427.081018858489 L 575 426.6507608794552 L 576 426.20429684497736 L 577 425.74192027219806 L 578 425.2639351395791 L 579 424.770655687058 L 580 424.26240620945885 L 581 423.73952084329153 L 582 423.20234334708266 L 583 422.65122687537894 L 584 422.0865337465746 L 585 421.5086352047135 L 586 420.9179111754238 L 587 420.31475001614467 L 588 419.6995482608102 L 589 419.0727103591575 L 590 418.4346484108308 L 591 417.7857818944563 L 592 417.12653739186635 L 593 416.45734830765275 L 594 415.7786545842358 L 595 415.09090241263425 L 596 414.39454393912786 L 597 413.6900369680046 L 598 412.97784466058795 L 599 412.25843523074263 L 600 411.53228163705865 L 601 410.7998612719158 L 602 410.06165564763353 L 603 409.3181500799119 L 604 408.5698333687727 L 605 407.81719747720933 L 606 407.06073720775737 L 607 406.3009498771985 L 608 405.53833498961154 L 609 404.77339390798534 L 610 404.0066295246095 L 611 403.23854593045996 L 612 402.4696480837964 L 613 401.7004414781894 L 614 400.93143181019565 L 615 400.1631246468999 L 616 399.3960250935422 L 617 398.630637461448 L 618 397.86746493648076 L 619 397.10700924823476 L 620 396.34977034018465 L 621 395.5962460410096 L 622 394.8469317373075 L 623 394.1023200479153 L 624 393.36290050004806 L 625 392.629159207471 L 626 391.9015785509159 L 627 391.1806368609509 L 628 390.46680810351404 L 629 389.7605615683151 L 630 389.0623615603125 L 631 388.3726670944672 L 632 387.691931593974 L 633 387.0206025921694 L 634 386.35912143831143 L 635 385.70792300742517 L 636 385.06743541440443 L 637 384.43807973255775 L 638 383.8202697167841 L 639 383.2144115315591 L 640 382.62090348391234 L 641 382.0401357615696 L 642 381.4724901764333 L 643 380.9183399135695 L 644 380.378049285866 L 645 379.85197349452375 L 646 379.3404583955383 L 647 378.84384027232466 L 648 378.3624456146362 L 649 377.89659090392166 L 650 377.44658240526167 L 651 377.01271596602237 L 652 376.5952768213575 L 653 376.19453940668745 L 654 375.810767177278 L 655 375.44421243503814 L 656 375.09511616265013 L 657 374.76370786514116 L 658 374.45020541900067 L 659 374.15481492894287 L 660 373.87773059240783 L 661 373.6191345718911 L 662 373.3791968751855 L 663 373.1580752436133 L 664 372.95591504832294 L 665 372.7728491947185 L 666 372.60899803508386 L 667 372.46446928946034 L 668 372.33935797482826 L 669 372.2337463426408 L 670 372.1477038247494 L 671 372.0812869877574 L 672 372.03453949583195 L 673 372.00749208199795 L 674 372.0001625279332 L 675 372.01255565227837 L 676 372.0446633074691 L 677 372.0964643850925 L 678 372.16792482976416 L 679 372.25899766151736 L 680 372.3696230066885 L 681 372.4997281372801 L 682 372.6492275187738 L 683 372.8180228663629 L 684 373.0060032095677 L 685 373.21304496519014 L 686 373.4390120185606 L 687 373.68375581302354 L 688 373.94711544760213 L 689 374.2289177827791 L 690 374.5289775543231 L 691 374.847097495086 L 692 375.18306846469204 L 693 375.53666958703155 L 694 375.90766839547103 L 695 376.2958209856829 L 696 376.7008721759942 L 697 377.12255567515024 L 698 377.56059425738084 L 699 378.01469994465623 L 700 378.4845741960113 L 701 378.9699081038141 L 702 379.47038259684973 L 703 379.9856686500865 L 704 380.5154275009852 L 705 381.05931087221063 L 706 381.61696120059827 L 707 382.18801187222545 L 708 382.77208746343325 L 709 383.36880398763964 L 710 383.9777691477824 L 711 384.59858259422526 L 712 385.2308361879587 L 713 385.87411426892055 L 714 386.52799392926255 L 715 387.19204529138034 L 716 387.8658317905268 L 717 388.5489104618207 L 718 389.24083223146386 L 719 389.94114221197344 L 720 390.64938000123755 L 721 391.36507998519517 L 722 392.08777164394314 L 723 392.81697986106826 L 724 393.5522252360013 L 725 394.2930243991875 L 726 395.0388903298664 L 727 395.7893326762518 L 728 396.5438580779021 L 729 397.3019704900683 L 730 398.06317150980686 L 731 398.8269607036427 L 732 399.5928359365673 L 733 400.36029370215556 L 734 401.1288294535839 L 735 401.8979379353326 L 736 402.6671135153541 L 737 403.43585051748875 L 738 404.2036435539093 L 739 404.9699878573764 L 740 405.7343796130856 L 741 406.49631628988857 L 742 407.25529697067 L 743 408.0108226816637 L 744 408.7623967204912 L 745 409.50952498270664 L 746 410.2517162866341 L 747 410.9884826962833 L 748 411.7193398421315 L 749 412.4438072395604 L 750 413.1614086047399 L 751 413.87167216774907 L 752 414.57413098273014 L 753 415.26832323487105 L 754 415.95379254401456 L 755 416.63008826469445 L 756 417.2967657824017 L 757 417.9533868058856 L 758 418.5995196552981 L 759 419.23473954599115 L 760 419.85862886778165 L 761 420.47077745949895 L 762 421.0707828786355 L 763 421.6582506659235 L 764 422.2327946046624 L 765 422.79403697462806 L 766 423.3416088003957 L 767 423.8751500939142 L 768 424.39431009117163 L 769 424.8987474827965 L 770 425.38813063844384 L 771 425.8621378248173 L 772 426.32045741718525 L 773 426.76278810425106 L 774 427.1888390862428 L 775 427.59833026609306 L 776 427.9909924335814 L 777 428.36656744232107 L 778 428.72480837947035 L 779 429.0654797280602 L 780 429.3883575218288 L 781 429.69322949246316 L 782 429.9798952091496 L 783 430.24816621034245 L 784 430.49786612766337 L 785 430.72883080185073 L 786 430.94090839068224 L 787 431.1339594687998 L 788 431.3078571193713 L 789 431.46248701752967 L 790 431.5977475055322 L 791 431.71354965959364 L 792 431.8098173483467 L 793 431.8864872828931 L 794 431.9435090584109 L 795 431.98084518729223 L 796 431.9984711237888 L 797 431.99637528014864 L 798 431.9745590342341 L 799 431.93303672861634 L 800 431.8718356611459 L 801 431.7909960670065 L 802 431.69057109226344 L 803 431.5706267589236 L 804 431.4312419215314 L 805 431.27250821532743 L 806 431.09452999600495 L 807 430.89742427110406 L 808 430.6813206230876 L 809 430.44636112415026 L 810 430.19270024281695 L 811 429.9205047423906 L 812 429.6299535713181 L 813 429.32123774554447 L 814 428.9945602229344 L 815 428.6501357698421 L 816 428.2881908199185 L 817 427.90896332524767 L 818 427.51270259991105 L 819 427.0996691560817 L 820 426.6701345327569 L 821 426.2243811172412 L 822 425.7627019594978 L 823 425.2854005794895 L 824 424.7927907676371 L 825 424.2851963785251 L 826 423.7629511179914 L 827 423.2263983237402 L 828 422.6758907396229 L 829 422.111790283735 L 830 421.5344678104817 L 831 420.94430286676857 L 832 420.34168344247735 L 833 419.7270057153914 L 834 419.10067379073774 L 835 418.46309943551825 L 836 417.8147018078027 L 837 417.15590718116357 L 838 416.4871486644326 L 839 415.8088659169636 L 840 415.12150485958915 L 841 414.4255173814602 L 842 413.72136104296266 L 843 413.0094987749049 L 844 412.29039857417524 L 845 411.5645331960682 L 846 410.8323798434833 L 847 410.09441985319876 L 848 409.35113837942856 L 849 408.6030240748692 L 850 407.8505687694467 L 851 407.0942671469745 L 852 406.3346164199358 L 853 405.57211600260257 L 854 404.8072671827079 L 855 404.0405727918862 L 856 403.2725368750984 L 857 402.5036643592598 L 858 401.73446072128786 L 859 400.96543165578834 L 860 400.19708274259847 L 861 399.4299191144056 L 862 398.6644451246596 L 863 397.90116401599795 L 864 397.1405775894006 L 865 396.38318587429296 L 866 395.62948679981355 L 867 394.8799758674623 L 868 394.13514582534475 L 869 393.3954863442268 L 870 392.6614836956122 L 871 391.9336204320549 L 872 391.21237506991645 L 873 390.4982217747767 L 874 389.79163004970513 L 875 389.09306442659704 L 876 388.40298416077826 L 877 387.7218429290786 L 878 387.0500885315729 L 879 386.3881625971855 L 880 385.7365002933518 L 881 385.09553003992784 L 882 384.4656732275357 L 883 383.8473439405308 L 884 383.2409486847711 L 885 382.6468861203706 L 886 382.06554679960874 L 887 381.4973129101718 L 888 380.94255802389245 L 889 380.40164685115377 L 890 379.87493500111924 L 891 379.362768747946 L 892 378.86548480313496 L 893 378.38341009416797 L 894 377.9168615495773 L 895 377.4661458905881 L 896 377.03155942947234 L 897 376.6133878747449 L 898 376.21190614333165 L 899 375.8273781798318 L 900 375.46005678299366 L 901 375.11018343951827 L 902 374.7779881652997 L 903 374.46368935420656 L 904 374.16749363450407 L 905 373.8895957330115 L 906 373.63017834708324 L 907 373.3894120244992 L 908 373.167455051342 L 909 372.96445334793555 L 910 372.7805403729133 L 911 372.6158370354791 L 912 372.470451615918 L 913 372.3444796944105 L 914 372.238004088195 L 915 372.15109479712214 L 916 372.0838089576348 L 917 372.03619080520497 L 918 372.00827164525253 L 919 372.0000698325641 L 920 372.0115907592259 L 921 372.04282685107927 L 922 372.0937575726998 L 923 372.1643494408979 L 924 372.25455604673175 L 925 372.3643180860174 L 926 372.4935633983172 L 927 372.64220701437984 L 928 372.81015121200124 L 929 372.99728558027 L 930 373.203487092154 L 931 373.428620185382 L 932 373.67253685156555 L 933 373.9350767335037 L 934 374.2160672306061 L 935 374.51532361236474 L 936 374.8326491398013 L 937 375.1678351948078 L 938 375.5206614172982 L 939 375.8908958500784 L 940 376.27829509134125 L 941 376.6826044546853 L 942 377.1035581365522 L 943 377.5408793909728 L 944 377.9942807115075 L 945 378.4634640202601 L 946 378.9481208638426 L 947 379.4479326161598 L 948 379.96257068788304 L 949 380.4916967424732 L 950 381.0349629186119 L 951 381.59201205889474 L 952 382.16247794463595 L 953 382.7459855366302 L 954 383.3421512217129 L 955 383.9505830649579 L 956 384.5708810673457 L 957 385.20263742873266 L 958 385.8454368159506 L 959 386.49885663585684 L 960 387.1624673131583 L 961 387.83583257282544 L 962 388.5185097269111 L 963 389.21004996558474 L 964 389.90999865219226 L 965 390.6178956221456 L 966 391.3332754854474 L 967 392.0556679326502 L 968 392.7845980440502 L 969 393.5195866019123 L 970 394.26015040552 L 971 395.00580258884423 L 972 395.756052940622 L 973 396.51040822663407 L 974 397.26837251396984 L 975 398.0294474970668 L 976 398.7931328253098 L 977 399.5589264319742 L 978 400.32632486429816 L 979 401.0948236144654 L 980 401.86391745128174 L 981 402.6331007523276 L 982 403.4018678363672 L 983 404.1697132957969 L 984 404.93613232891295 L 985 405.70062107178177 L 986 406.46267692949294 L 987 407.2217989065786 L 988 407.9774879363808 L 989 408.7292472091508 L 990 409.4765824986652 L 991 410.219002487143 L 992 410.95601908825057 L 993 411.6871477679827 L 994 412.4119078632079 L 995 413.12982289766865 L 996 413.8404208952296 L 997 414.543234690167 L 998 415.23780223429577 L 999 415.9236669007318 L 1000 416.6003777840906 L 1001 417.2674899969244 L 1002 417.9245649622025 L 1003 418.5711707016437 L 1004 419.2068821197097 L 1005 419.83128128307425 L 1006 420.4439576953836 L 1007 421.04450856712714 L 1008 421.6325390804423 L 1009 422.20766264867774 L 1010 422.7695011705456 L 1011 423.31768527869525 L 1012 423.8518545825452 L 1013 424.3716579052129 L 1014 424.8767535143881 L 1015 425.36680934699626 L 1016 425.84150322750565 L 1017 426.3005230797339 L 1018 426.74356713201524 L 1019 427.17034411559285 L 1020 427.5805734561067 L 1021 427.9739854580504 L 1022 428.3503214820762 L 1023 428.7093341150312 L 1024 429.05078733261325 L 1025 429.37445665453936 L 1026 429.6801292921253 L 1027 429.9676042881778 L 1028 430.23669264910995 L 1029 430.48721746918966 L 1030 430.7190140468427 L 1031 430.9319299929315 L 1032 431.12582533094 L 1033 431.30057258899774 L 1034 431.4560568836831 L 1035 431.59217599555103 L 1036 431.70884043633436 L 1037 431.805973507776 L 1038 431.88351135205227 L 1039 431.94140299375476 L 1040 431.9796103734029 L 1041 431.9981083724653 L 1042 431.99688482987307 L 1043 431.97594055001514 L 1044 431.9352893022094 L 1045 431.8749578116501 L 1046 431.7949857418385 L 1047 431.6954256685064 L 1048 431.5763430450521 L 1049 431.4378161595094 L 1050 431.27993608307867 L 1051 431.1028066102548 L 1052 430.9065441905896 L 1053 430.6912778521351 L 1054 430.45714911661673 L 1055 430.20431190639374 L 1056 429.93293244326617 L 1057 429.6431891391965 L 1058 429.3352724790171 L 1059 429.00938489519996 L 1060 428.6657406347731 L 1061 428.3045656184682 L 1062 427.9260972921949 L 1063 427.53058447093747 L 1064 427.1182871751772 L 1065 426.6894764599484 L 1066 426.24443423663956 L 1067 425.78345308765734 L 1068 425.3068360740754 L 1069 424.8148965363942 L 1070 424.3079578885424 L 1071 423.78635340525636 L 1072 423.25042600297667 L 1073 422.7005280144055 L 1074 422.1370209568745 L 1075 421.56027529467315 L 1076 420.9706701954963 L 1077 420.36859328116935 L 1078 419.7544403728152 L 1079 419.1286152306316 L 1080 418.4915292884482 L 1081 417.84360138323916 L 1082 417.1852574797693 L 1083 416.51693039055294 L 1084 415.8390594913124 L 1085 415.1520904321202 L 1086 414.4564748444176 L 1087 413.75267004409983 L 1088 413.04113873086504 L 1089 412.32234868402304 L 1090 411.5967724549652 L 1091 410.8648870564968 L 1092 410.12717364923606 L 1093 409.38411722528684 L 1094 408.6362062893919 L 1095 407.88393253777747 L 1096 407.12779053489874 L 1097 406.3682773883008 L 1098 405.6058924218066 L 1099 404.8411368472489 L 1100 404.07451343496007 L 1101 403.3065261832381 L 1102 402.5376799870044 L 1103 401.76848030587337 L 1104 400.99943283184933 L 1105 400.2310431568718 L 1106 399.463816440426 L 1107 398.69825707743775 L 1108 397.93486836667097 L 1109 397.17415217984615 L 1110 396.4166086316965 L 1111 395.6627357511794 L 1112 394.9130291540595 L 1113 394.1679817170776 L 1114 393.42808325392065 L 1115 392.69382019320534 L 1116 391.9656752586874 L 1117 391.2441271519062 L 1118 390.5296502374739 L 1119 389.82271423121574 L 1120 389.1237838913665 L 1121 388.4333187130263 L 1122 387.7517726260767 L 1123 387.0795936967547 L 1124 386.4172238330832 L 1125 385.7650984943482 L 1126 385.12364640481695 L 1127 384.49328927188344 L 1128 383.8744415088266 L 1129 383.26750996236433 L 1130 382.6728936451821 L 1131 382.09098347361095 L 1132 381.5221620106295 L 1133 380.96680321435645 L 1134 380.4252721922013 L 1135 379.8979249608327 L 1136 379.38510821212407 L 1137 378.88715908522914 L 1138 378.40440494493794 L 1139 377.93716316645856 L 1140 377.48574092676637 L 1141 377.0504350026578 L 1142 376.63153157564176 L 1143 376.22930604379604 L 1144 375.84402284071365 L 1145 375.47593526165724 L 1146 375.12528529703616 L 1147 374.79230347331537 L 1148 374.47720870146185 L 1149 374.18020813302627 L 1150 373.9014970239564 L 1151 373.6412586062306 L 1152 373.39966396739675 L 1153 373.17687193809405 L 1154 372.97302898763434 L 1155 372.78826912770876 L 1156 372.62271382428554 L 1157 372.4764719177545 L 1158 372.34963955137295 L 1159 372.2423001080585 L 1160 372.1545241555707 L 1161 372.08636940011843 L 1162 372.0378806484217 L 1163 372.0090897782553 L 1164 372.0000157174908 L 1165 372.01066443165325 L 1166 372.0410289199992 L 1167 372.0910892201193 L 1168 372.1608124210618 L 1169 372.2501526849694 L 1170 372.3590512772141 L 1171 372.487436605011 L 1172 372.635224264485 L 1173 372.8023170961603 L 1174 372.98860524883577 L 1175 373.19396625180354 L 1176 373.41826509536503 L 1177 373.6613543195893 L 1178 373.9230741112574 L 1179 374.2032524089277 L 1180 374.50170501605356 L 1181 374.81823572207895 L 1182 375.1526364314324 L 1183 375.5046873003346 L 1184 375.8741568813292 L 1185 376.26080227544276 L 1186 376.6643692918725 L 1187 377.0845926150984 L 1188 377.5211959793083 L 1189 377.97389235002225 L 1190 378.4423841127968 L 1191 378.926363268884 L 1192 379.42551163771844 L 1193 379.939501066097 L 1194 380.4679936439157 L 1195 381.0106419263203 L 1196 381.5670891621261 L 1197 382.13696952835494 L 1198 382.7199083707373 L 1199 383.31552245001967 L 1200 383.9234201939158 L 1201 384.543201954537 L 1202 385.1744602711308 L 1203 385.81678013795647 L 1204 386.4697392771207 L 1205 387.1329084161939 L 1206 387.8058515704254 L 1207 388.4881263293711 L 1208 389.17928414774565 L 1209 389.87887064030804 L 1210 390.5864258805861 L 1211 391.3014847032444 L 1212 392.02357700989603 L 1213 392.75222807815754 L 1214 393.48695887374396 L 1215 394.2272863653985 L 1216 394.97272384244985 L 1217 395.7227812347885 L 1218 396.4769654350516 L 1219 397.2347806228051 L 1220 397.9957285905083 L 1221 398.75930907104924 L 1222 399.5250200666331 L 1223 400.2923581788085 L 1224 401.0608189394153 L 1225 401.82989714223476 L 1226 402.5990871751253 L 1227 403.3678833524257 L 1228 404.13578024740536 L 1229 404.90227302454576 L 1230 405.6668577714317 L 1231 406.4290318300375 L 1232 407.18829412718685 L 1233 407.94414550397164 L 1234 408.6960890439121 L 1235 409.44363039964276 L 1236 410.1862781179091 L 1237 410.9235439626622 L 1238 411.6549432360375 L 1239 412.3799950970081 L 1240 413.09822287750205 L 1241 413.8091543957766 L 1242 414.51232226684283 L 1243 415.2072642097366 L 1244 415.8935233514343 L 1245 416.57064852721317 L 1246 417.23819457725864 L 1247 417.89572263932416 L 1248 418.5428004372507 L 1249 419.17900256515657 L 1250 419.8039107671098 L 1251 420.4171142121016 L 1252 421.018209764136 L 1253 421.60680224726366 L 1254 422.18250470537913 L 1255 422.7449386566177 L 1256 423.2937343421775 L 1257 423.8285309694103 L 1258 424.3489769490145 L 1259 424.85473012618064 L 1260 425.3454580055315 L 1261 425.82083796971443 L 1262 426.2805574914976 L 1263 426.7243143392342 L 1264 427.1518167755568 L 1265 427.5627837491742 L 1266 427.9569450796402 L 1267 428.3340416349793 L 1268 428.69382550204506 L 1269 429.0360601495061 L 1270 429.36052058334684 L 1271 429.66699349478534 L 1272 429.9552774005075 L 1273 430.22518277512785 L 1274 430.4765321757882 L 1275 430.70916035881345 L 1276 430.9229143883469 L 1277 431.1176537368945 L 1278 431.2932503777111 L 1279 431.4495888689688 L 1280 431.58656642965116 L 1281 431.7040930071244 L 1282 431.80209133634014 L 1283 431.8804969906317 L 1284 431.9392584240696 L 1285 431.9783370053493 L 1286 431.99770704318877 L 1287 431.997355803218 L 1288 431.97728351635135 L 1289 431.93750337863565 L 1290 431.87804154257464 L 1291 431.79893709993576 L 1292 431.70024205605023 L 1293 431.58202129562335 L 1294 431.4443525400773 L 1295 431.2873262964557 L 1296 431.1110457979212 L 1297 430.9156269358878 L 1298 430.7011981838305 L 1299 430.4679005128237 L 1300 430.2158872988629 L 1301 429.9453242220316 L 1302 429.6563891575784 L 1303 429.3492720589779 L 1304 429.02417483304936 L 1305 428.6813112072188 L 1306 428.32090658900836 L 1307 427.9431979178478 L 1308 427.548433509304 L 1309 427.1368728918326 L 1310 426.7087866361558 L 1311 426.26445617738386 L 1312 425.8041736299905 L 1313 425.32824159577063 L 1314 424.83697296490107 L 1315 424.33069071023914 L 1316 423.80972767499077 L 1317 423.2744263538921 L 1318 422.7251386680431 L 1319 422.16222573354634 L 1320 421.58605762409917 L 1321 420.9970131276985 L 1322 420.39547949761436 L 1323 419.7818521978008 L 1324 419.15653464290625 L 1325 418.5199379330596 L 1326 417.8724805836007 L 1327 417.21458824993863 L 1328 416.54669344771435 L 1329 415.8692352684527 L 1330 415.18265909089394 L 1331 414.48741628818806 L 1332 413.78396393115224 L 1333 413.0727644877787 L 1334 412.3542855191978 L 1335 411.6289993722894 L 1336 410.89738286915167 L 1337 410.1599169936235 L 1338 409.4170865750754 L 1339 408.66937996966794 L 1340 407.9172887392954 L 1341 407.16130732841833 L 1342 406.40193273900485 L 1343 405.6396642037865 L 1344 404.87500285805135 L 1345 404.10845141018297 L 1346 403.34051381116825 L 1347 402.5716949232855 L 1348 401.8025001881961 L 1349 401.0334352946524 L 1350 400.2650058460464 L 1351 399.497717028011 L 1352 398.7320732762997 L 1353 397.9685779451554 L 1354 397.20773297639397 L 1355 396.45003856941287 L 1356 395.6959928523486 L 1357 394.94609155459244 L 1358 394.2008276808869 L 1359 393.4606911872097 L 1360 392.72616865866553 L 1361 391.99774298959056 L 1362 391.27589306608684 L 1363 390.5610934511884 L 1364 389.8538140728725 L 1365 389.1545199151155 L 1366 388.46367071220095 L 1367 387.7817206464784 L 1368 387.1091180497708 L 1369 386.44630510863135 L 1370 385.7937175736365 L 1371 385.1517844729138 L 1372 384.52092783008607 L 1373 383.90156238682357 L 1374 383.2940953301805 L 1375 382.6989260249008 L 1376 382.11644575086433 L 1377 381.54703744585004 L 1378 380.99107545378183 L 1379 380.4489252786261 L 1380 379.92094334409865 L 1381 379.40747675934364 L 1382 378.9088630907338 L 1383 378.42543013994646 L 1384 377.9574957284572 L 1385 377.50536748859685 L 1386 377.0693426613045 L 1387 376.6497079007151 L 1388 376.24673908570406 L 1389 375.8607011385184 L 1390 375.491847850609 L 1391 375.14042171578257 L 1392 374.8066537707785 L 1393 374.49076344338056 L 1394 374.1929584081583 L 1395 373.91343444993726 L 1396 373.652375335084 L 1397 373.4099526906941 L 1398 373.18632589175934 L 1399 372.981641956391 L 1400 372.7960354491657 L 1401 372.6296283926597 L 1402 372.4825301872276 L 1403 372.35483753908017 L 1404 372.24663439670655 L 1405 372.1579918956848 L 1406 372.0889683119155 L 1407 372.03960902330914 L 1408 372.0099464799541 L 1409 372.0000001827829 L 1410 372.0097766707516 L 1411 372.039269516541 L 1412 372.0884593307824 L 1413 372.1573137748044 L 1414 372.2457875818931 L 1415 372.353822587052 L 1416 372.4813477652407 L 1417 372.6282792780692 L 1418 372.79452052891486 L 1419 372.9799622264281 L 1420 373.18448245638285 L 1421 373.4079467618266 L 1422 373.6502082314757 L 1423 373.91110759629873 L 1424 374.19047333422407 L 1425 374.48812178290325 L 1426 374.80385726045483 L 1427 375.1374721941117 L 1428 375.4887472566837 L 1429 375.8574515107502 L 1430 376.2433425604833 L 1431 376.64616671100646 L 1432 377.06565913517875 L 1433 377.50154404770046 L 1434 377.9535348864203 L 1435 378.42133450073027 L 1436 378.9046353469188 L 1437 379.40311969035923 L 1438 379.91645981439603 L 1439 380.44431823579504 L 1440 380.9863479266129 L 1441 381.54219254234334 L 1442 382.11148665618623 L 1443 382.69385599929 L 1444 383.2889177068046 L 1445 383.8962805695875 L 1446 384.51554529139503 L 1447 385.1463047513892 L 1448 385.78814427179117 L 1449 386.4406418904994 L 1450 387.10336863850046 L 1451 387.77588882188263 L 1452 388.45776030827443 L 1453 389.148534817512 L 1454 389.84775821635213 L 1455 390.55497081702964 L 1456 391.2697076794697 L 1457 391.9914989169501 L 1458 392.7198700050185 L 1459 393.454342093456 L 1460 394.1944323210868 L 1461 394.939654133223 L 1462 395.689517601539 L 1463 396.44352974616265 L 1464 397.2011948597738 L 1465 397.96201483349427 L 1466 398.725489484359 L 1467 399.49111688414797 L 1468 400.2583936893683 L 1469 401.0268154721642 L 1470 401.79587705194234 L 1471 402.5650728274893 L 1472 403.3338971093687 L 1473 404.101844452373 L 1474 404.868409987818 L 1475 405.6330897554552 L 1476 406.3953810347901 L 1477 407.15478267558194 L 1478 407.91079542731484 L 1479 408.6629222674166 L 1480 409.41066872801576 L 1481 410.15354322101615 L 1482 410.8910573612816 L 1483 411.62272628771126 L 1484 412.3480689820011 L 1485 413.0666085848782 L 1486 413.77787270959925 L 1487 414.4813937525114 L 1488 415.17670920046584 L 1489 415.8633619348873 L 1490 416.5409005322944 L 1491 417.20887956107885 L 1492 417.86685987434214 L 1493 418.51440889860385 L 1494 419.15110091818525 L 1495 419.7765173550874 L 1496 420.3902470441738 L 1497 420.9918865034827 L 1498 421.5810401994851 L 1499 422.1573208071202 L 1500 422.7203494644319 L 1501 423.26975602164373 L 1502 423.8051792845038 L 1503 424.3262672517446 L 1504 424.8326773464964 L 1505 425.3240766415077 L 1506 425.8001420780193 L 1507 426.2605606781522 L 1508 426.7050297506669 L 1509 427.1332570899612 L 1510 427.544961168173 L 1511 427.93987132026507 L 1512 428.31772792196625 L 1513 428.6782825604563 L 1514 429.021298197678 L 1515 429.34654932617315 L 1516 429.65382211733606 L 1517 429.9429145619911 L 1518 430.2136366031978 L 1519 430.4658102612003 L 1520 430.6992697504349 L 1521 430.91386158852265 L 1522 431.109444697172 L 1523 431.285890494928 L 1524 431.44308298170466 L 1525 431.5809188150466 L 1526 431.699307378069 L 1527 431.7981708390318 L 1528 431.87744420250795 L 1529 431.9370753521132 L 1530 431.977025084769 L 1531 431.99726713647544 L 1532 431.9977881995778 L 1533 431.9785879315157 L 1534 431.9396789550477 L 1535 431.88108684995365 L 1536 431.80285013621693 L 1537 431.7050202487011 L 1538 431.5876615033349 L 1539 431.45085105482946" stroke-linecap="round" stroke-linejoin="round" stroke-miterlimit="10" stroke-width="14"/></g></svg>